<svg width="32" height="32" viewBox="0 0 32 32" fill="none" xmlns="http://www.w3.org/2000/svg">
<g clip-path="url(#clip0_6830_143246)">
<circle cx="16" cy="16" r="16" fill="#EA5455" fill-opacity="0.12"/>
<path d="M8.89769 21.168C8.23502 21.168 7.62369 21.0467 7.06369 20.804C6.51302 20.552 6.06035 20.1973 5.70569 19.74L6.96569 18.228C7.23635 18.5827 7.52102 18.8533 7.81969 19.04C8.11835 19.2173 8.44035 19.306 8.78569 19.306C9.70969 19.306 10.1717 18.7647 10.1717 17.682V13.02H6.72769V11.2H12.4257V17.556C12.4257 18.7693 12.127 19.6747 11.5297 20.272C10.9324 20.8693 10.055 21.168 8.89769 21.168ZM14.6659 21V11.2H19.1179C20.1819 11.2 21.1199 11.4053 21.9319 11.816C22.7439 12.2173 23.3786 12.782 23.8359 13.51C24.2932 14.238 24.5219 15.1013 24.5219 16.1C24.5219 17.0893 24.2932 17.9527 23.8359 18.69C23.3786 19.418 22.7439 19.9873 21.9319 20.398C21.1199 20.7993 20.1819 21 19.1179 21H14.6659ZM16.9339 19.138H19.0059C19.6592 19.138 20.2239 19.0167 20.6999 18.774C21.1852 18.522 21.5586 18.1673 21.8199 17.71C22.0906 17.2527 22.2259 16.716 22.2259 16.1C22.2259 15.4747 22.0906 14.938 21.8199 14.49C21.5586 14.0327 21.1852 13.6827 20.6999 13.44C20.2239 13.188 19.6592 13.062 19.0059 13.062H16.9339V19.138Z" fill="#EA5455"/>
</g>
<defs>
<clipPath id="clip0_6830_143246">
<rect width="32" height="32" fill="white"/>
</clipPath>
</defs>
</svg>
