<svg width="46" height="44" viewBox="0 0 46 44" fill="none" xmlns="http://www.w3.org/2000/svg">
<circle cx="23" cy="22" r="13" fill="#703B1E"/>
<path d="M22.3168 27V18.04L23.2968 19.02H20.3568V17.2H24.5848V27H22.3168Z" fill="white"/>
<path d="M10.9619 7.02678C10.8682 4.8719 12.0862 0.449714 17.7076 0C18.1577 6.296 13.398 7.30785 10.9619 7.02678Z" fill="#F9D350"/>
<path d="M6.46426 2.24857C10.7365 5.17171 9.55604 9.46273 8.43176 11.2428C9.74342 9.83749 13.2662 7.75757 16.8639 10.6807C13.4907 14.953 9.2751 13.3977 7.58892 12.0861C3.09178 8.71321 5.43366 3.935 6.46426 2.24857Z" fill="#F9D350"/>
<path d="M1.68627 12.3671C5.50883 13.7163 6.08957 17.4264 5.90211 19.1128C6.7454 17.6138 9.44383 15.0092 13.4913 16.5832C12.6479 19.3939 10.1186 21.9236 5.05928 20.5182C0 19.1128 0.936743 14.4283 1.68627 12.3671Z" fill="#F9D350"/>
<path d="M0 25.0153C3.82257 23.8911 6.65202 26.6081 7.58892 28.1071C7.30774 26.6081 7.8697 23.2727 12.367 21.9236C13.1165 24.4532 13.2103 29.6811 7.58892 30.3557C1.9675 31.0303 0.187381 27.0765 0 25.0153Z" fill="#F9D350"/>
<path d="M14.6157 28.1071C10.5683 29.906 10.6807 33.9159 11.2428 35.696C10.1186 34.3844 6.91435 32.3232 3.09178 34.5718C3.93512 36.4456 6.74601 39.6873 11.2428 37.6635C11.805 38.3194 13.4352 39.6873 15.4589 39.9121C14.6157 41.0364 13.379 43.3974 15.1778 43.8471C17.4264 44.4093 18.5507 41.3175 19.3939 41.3175C20.2371 41.3175 24.4532 41.8796 26.1396 41.3175C26.7955 42.1607 28.1633 43.8471 29.5125 43.8471C31.1989 43.8471 31.761 42.7228 30.0746 39.9121C31.1052 39.631 33.2788 38.7878 33.7285 37.6635C35.9771 38.5068 40.8678 39.0689 42.4418 34.5718C41.5048 33.7285 38.6754 32.6043 34.8528 34.8528C35.1339 33.2601 34.7404 29.6811 30.9178 28.1071C29.9809 29.6062 28.6693 33.054 30.9178 34.8528C28.5757 36.914 22.0925 39.8559 14.8968 35.1339C16.4708 32.6605 15.3652 29.4188 14.6157 28.1071Z" fill="#F9D350"/>
<path d="M33.7285 21.9236C37.5511 23.0478 38.3194 26.5144 38.2257 28.1071C40.2494 24.5094 43.9408 24.5469 45.5335 25.0153C45.1588 27.4513 43.0601 31.9297 37.6635 30.3557C32.267 28.7817 32.7916 24.0784 33.7285 21.9236Z" fill="#F9D350"/>
<path d="M43.8471 12.3671C40.2494 13.2666 39.35 17.239 39.35 19.1128C38.5068 17.6138 35.8647 15.0092 32.0421 16.5832C32.7916 18.5507 35.4712 22.2046 40.1932 21.0803C44.9152 19.9561 44.5966 14.8031 43.8471 12.3671Z" fill="#F9D350"/>
<path d="M28.3882 10.6807C31.761 8.20728 35.415 9.46273 36.8203 10.3996C35.9771 8.71321 35.1901 4.722 38.7878 2.24857C40.1932 4.12238 41.992 8.71321 37.9446 12.0861C33.8972 15.4589 29.8872 12.5545 28.3882 10.6807Z" fill="#F9D350"/>
<path d="M33.7285 7.02678C34.2907 4.96559 34.0096 0.674571 28.3882 0C27.7324 2.15488 27.8823 6.57707 33.7285 7.02678Z" fill="#F9D350"/>
<path d="M10.9619 7.02678C10.8682 4.8719 12.0862 0.449714 17.7076 0C13.4913 3.09178 12.6482 5.05928 10.9619 7.02678Z" fill="#D5A213"/>
<path d="M6.46426 2.24857C6.18357 6.18357 8.15106 7.86999 8.43176 11.2428C10.3996 10.6807 12.9293 11.805 16.8639 10.6807C13.4907 14.953 9.2751 13.3977 7.58892 12.0861C3.09178 8.71321 5.43366 3.935 6.46426 2.24857Z" fill="#D5A213"/>
<path d="M1.68627 12.3671C3.65393 15.74 2.24895 18.5507 5.62142 19.9561C10.9618 21.0803 12.6482 16.5832 13.4913 16.5832C12.6479 19.3939 10.1186 21.9236 5.05928 20.5182C0 19.1128 0.936743 14.4283 1.68627 12.3671Z" fill="#D5A213"/>
<path d="M0 25.0153C3.09178 25.8586 3.65393 28.1071 7.58892 28.1071C11.2428 27.545 12.367 25.5775 12.367 21.9236C13.1165 24.4532 13.2103 29.6811 7.58892 30.3557C1.9675 31.0303 0.187381 27.0765 0 25.0153Z" fill="#D5A213"/>
<path d="M14.6157 28.1071C12.6482 32.0421 14.8968 33.1664 11.2428 35.696C8.71321 35.1339 7.02678 37.6635 3.09178 34.5718C3.93512 36.4456 6.74601 39.6873 11.2428 37.6635C11.805 38.3194 13.4352 39.6873 15.4589 39.9121C14.6157 41.0364 13.379 43.3974 15.1778 43.8471C17.4264 44.4093 18.5507 41.3175 19.3939 41.3175C20.2371 41.3175 24.4532 41.8796 26.1396 41.3175C26.7955 42.1607 28.1633 43.8471 29.5125 43.8471C31.1989 43.8471 31.761 42.7228 30.0746 39.9121C31.1052 39.631 33.2788 38.7878 33.7285 37.6635C35.9771 38.5068 40.8678 39.0689 42.4418 34.5718C40.1932 35.696 38.5068 36.5393 34.8528 34.8528C29.7935 34.0096 31.761 30.9178 30.9178 28.1071C29.9809 29.6062 28.6693 33.054 30.9178 34.8528C28.5757 36.914 22.0925 39.8559 14.8968 35.1339C16.4708 32.6605 15.3652 29.4188 14.6157 28.1071Z" fill="#D5A213"/>
<path d="M33.7285 21.9236C34.0096 24.4532 34.0096 27.545 38.2257 28.1071C42.1607 30.1437 43.285 26.4207 45.5335 25.0153C45.1588 27.4513 43.0601 31.9297 37.6635 30.3557C32.267 28.7817 32.7916 24.0784 33.7285 21.9236Z" fill="#D5A213"/>
<path d="M43.8471 12.3671C40.2494 13.2666 43.8471 16.3021 39.35 19.1128C34.8528 19.3939 34.8528 16.5832 32.0421 16.5832C32.7916 18.5507 35.4712 22.2046 40.1932 21.0803C44.9152 19.9561 44.5966 14.8031 43.8471 12.3671Z" fill="#D5A213"/>
<path d="M28.3882 10.6807C32.6043 10.9618 35.415 9.46273 36.8203 10.3996C35.9771 8.71321 39.0689 7.86999 38.7878 2.24857C40.1932 4.12238 41.992 8.71321 37.9446 12.0861C33.8972 15.4589 29.8872 12.5545 28.3882 10.6807Z" fill="#D5A213"/>
<path d="M33.7285 7.02678C34.2907 4.96559 34.0096 0.674571 28.3882 0C30.3557 1.9675 32.3232 4.49714 33.7285 7.02678Z" fill="#D5A213"/>
<path d="M15.4569 39.9669C13.4329 39.7448 11.806 38.3481 11.243 37.693C11.4303 37.6927 12.6422 37.1309 12.6422 37.1309C14.6097 39.3794 25.8522 42.4712 32.8794 37.1308L33.7279 37.6637C33.4468 38.5069 30.9172 39.9111 30.074 39.9123C31.7643 42.7207 31.2023 43.88 29.5159 43.8824C28.1668 43.8843 26.796 41.8789 26.139 41.0366C24.4533 41.6011 20.5175 41.3177 19.3933 41.3177C18.55 41.3177 17.4249 44.4599 15.1813 43.9023C13.3818 43.4551 14.6152 41.0923 15.4569 39.9669Z" fill="#87522B"/>
<path d="M14.9862 43.8695C13.488 43.3005 14.6182 41.0367 15.4619 39.9124C14.9862 41.0367 13.8086 42.9709 15.258 43.2816C16.5864 43.5663 18.934 41.0441 19.116 41.0367C20.0039 41.0002 22.5029 41.6515 26.0039 41.0002C26.5039 41.0002 28.6725 43.0042 29.5926 43.0005L29.5979 43.0005C30.0913 42.9985 31.4782 42.9931 30.0778 39.9124C32.0453 43.0042 30.998 43.8921 29.5926 43.8921C28.2435 43.8921 26.7998 42.16 26.1428 41.3177C23.5039 42.0002 20.0256 41.3177 19.3971 41.3177C19.116 41.3177 17.1486 44.6906 14.9862 43.8695Z" fill="#D5A213"/>
</svg>
